<?xml version='1.0' encoding='utf-8'?>
<svg xmlns="http://www.w3.org/2000/svg" viewBox="0 0 500 500"><path d="M 336.0563 270.6634 C 328.3555 273.9448 321.3777 266.0507 316.2885 266.3774 C 310.9006 266.7233 309.6834 270.8339 309.4850 272.0306 C 308.9302 275.3785 309.3511 276.0968 309.5722 279.8289 C 309.8517 284.5586 312.4168 287.0990 320.0932 289.3123 C 330.8731 292.2649 333.3744 295.3197 334.3244 306.2835 C 335.3597 317.9816 330.7023 315.0303 312.5040 292.4750 C 298.1857 274.7663 294.4783 271.2879 290.9416 272.3440 C 287.1479 273.5012 280.8010 275.8768 280.5303 282.2985 C 280.2794 288.2492 285.7603 296.0837 283.3582 308.0634 C 281.9716 314.9782 297.3247 318.8252 294.0478 320.9331 C 290.7691 323.0413 288.1644 320.1772 283.6571 317.7168 C 278.9961 315.1725 274.6892 314.0432 274.9750 319.8237 C 275.0846 322.0330 276.9828 323.8291 278.4478 324.9896 C 281.9845 327.8351 281.2151 336.0315 279.4904 340.2474 C 278.1953 343.7257 281.8038 342.5034 283.5385 343.5217 C 285.5814 344.7209 287.9432 348.8389 287.9432 348.8389 C 287.9573 348.8249 291.1533 357.3622 291.4115 358.1582 C 291.5697 359.0940 292.1399 362.7596 291.9395 362.7190 C 291.9395 362.7190 291.7910 366.8923 290.9086 371.9283 C 289.3508 380.8200 286.6581 384.1650 287.4960 386.9788 C 287.9582 388.5310 291.6368 390.4483 296.4268 389.8601 C 299.7775 389.4487 305.0002 384.9127 310.9518 384.2802 C 319.1441 383.5426 322.0768 382.0669 325.4409 377.3238 C 330.3563 370.1564 329.4953 365.4134 321.6454 356.0326 C 315.0044 348.1275 312.1580 342.3303 312.1580 336.7441 C 312.1580 328.4178 318.4548 333.5820 333.0301 353.5030 C 337.1699 359.3002 340.6193 364.2540 340.6193 364.6756 C 340.6193 364.9918 341.8653 367.3910 340.0810 367.0998 C 332.6696 365.8902 332.6915 387.1950 339.4132 382.1722 C 343.3207 379.2523 347.8868 370.9013 361.7503 380.4859 C 374.0248 388.9719 378.6544 372.6861 377.3602 364.2540 C 376.1531 356.6651 371.3222 353.7138 365.0272 356.5597 C 359.7658 358.9838 357.9557 357.8244 349.0714 346.7574 C 340.0163 335.3740 343.0298 331.0780 348.1304 323.4591 C 357.3634 309.6651 356.7999 296.9085 352.8777 293.1133 C 340.8315 281.4584 349.8175 274.9358 349.8175 274.9358 C 349.8175 274.9358 350.3572 274.5357 349.2468 273.4524 C 346.7249 270.9924 341.0280 268.5449 336.0563 270.6634 Z" fill="#000000" /><path d="M 263.6449 276.9368 C 258.6256 280.1062 260.0351 281.9307 253.8875 284.3598 C 246.8321 287.0220 242.4930 286.5686 237.1839 282.4037 C 231.5253 278.0092 227.1343 276.9949 223.9913 282.3169 C 222.1749 285.2087 224.7307 285.9055 224.4521 291.5731 C 224.3679 293.7678 219.5994 300.2036 219.6178 302.1406 C 219.6603 306.6359 220.2315 305.1037 221.5009 307.1247 C 223.1070 309.7852 228.2317 310.1524 230.4670 304.0219 C 232.7732 297.7764 232.4396 295.9722 234.3953 297.7080 C 237.3990 300.3678 241.8439 303.9084 239.6086 309.2297 C 238.1418 312.6998 235.1459 318.7817 230.1155 314.5014 C 225.6450 310.6844 222.3041 316.8543 222.3041 320.7869 C 222.3041 328.4223 233.3499 327.1853 240.4753 329.7301 C 243.3397 330.6556 243.3543 333.5687 244.0099 335.3734 C 245.4015 339.2039 240.9660 356.4513 234.8018 355.1325 C 229.3629 353.9689 226.0178 363.8518 222.9383 370.6240 C 219.7928 377.5409 200.8251 380.9222 210.9415 387.7698 C 213.5343 389.5248 246.3950 390.6619 250.7253 388.3485 C 258.3396 384.1843 261.4826 384.0686 269.0970 387.3075 C 281.6016 392.6284 288.7963 385.9193 288.6569 369.2626 C 288.5868 359.0836 286.2123 349.3672 283.1385 347.0536 C 279.5758 344.1618 276.2926 346.3597 270.2852 355.3820 C 267.6302 359.5462 265.1155 362.9006 264.7658 362.9006 C 263.3692 362.9006 261.9024 357.5797 261.9024 352.4903 C 261.9024 342.5424 264.4872 338.8409 268.8184 342.5424 C 271.6127 344.9716 272.9181 342.8754 274.5943 340.0993 C 275.7124 338.2484 276.6581 338.0261 276.7008 331.0860 C 276.7377 325.0804 275.0354 323.4500 272.8270 320.7857 C 270.0769 317.4677 269.6557 314.2361 266.3737 320.1013 C 261.8332 328.1991 258.4097 325.1913 258.4097 313.0443 C 258.4097 309.3430 258.6192 305.6405 258.8286 304.6004 C 259.5269 301.7071 260.5320 300.3267 264.6538 304.1461 C 275.4812 313.9777 278.4892 316.2034 278.4191 296.7705 C 278.4191 289.1353 277.9202 287.9831 276.6864 283.2318 C 273.9783 272.8032 270.6199 272.5323 263.6449 276.9368 Z" fill="#000000" /><path d="M 380.0079 257.9564 C 375.1546 259.5464 368.5936 265.5813 367.7847 269.1825 C 367.4252 270.8769 366.3367 277.5949 363.6503 277.0198 C 346.5341 273.3531 349.8039 290.0172 358.1696 292.6885 C 362.9852 294.2268 359.8908 303.1368 360.2934 304.7007 C 360.8246 306.7642 358.1094 311.6207 357.5701 314.4808 C 356.7612 319.1404 349.6232 326.6071 349.7356 332.2971 C 349.9234 341.7202 351.5574 351.9617 361.0529 353.5173 C 365.3041 354.2136 371.8210 343.6109 381.6356 357.5532 C 387.8632 366.3993 385.1417 373.5434 391.8106 375.0113 C 399.2443 376.6474 408.0001 375.6234 414.7005 372.1206 C 419.0199 369.8624 428.9909 350.9411 428.9909 350.9411 L 433.6645 337.1729 L 437.6128 316.5959 C 437.6128 316.5959 437.8078 309.0297 436.9657 305.4759 C 436.1397 301.9872 432.7657 295.9764 432.7657 295.9764 C 428.9909 287.2919 420.5425 273.7354 415.6891 268.6533 C 414.4308 267.2757 410.1167 264.3116 406.1621 262.0857 C 399.8707 258.5912 397.8935 257.9564 390.8830 257.5340 C 386.4791 257.3204 381.5358 257.5340 380.0079 257.9564 Z M 401.2189 292.7988 C 405.5330 295.4460 408.6787 299.5776 411.6446 306.4611 C 416.4081 317.7929 415.2397 325.1007 407.2407 333.7844 C 396.9048 345.0104 391.9616 342.9977 397.1744 329.6544 C 400.0505 322.2407 400.3237 314.8490 398.7958 311.3546 C 398.0768 309.9776 395.0174 306.2503 391.1527 303.3892 C 382.7042 297.0348 382.1650 294.8112 388.0070 291.6336 C 392.2312 289.3032 396.0060 289.6211 401.2189 292.7988 Z" fill="#000000" /><path d="M 143.5820 270.5498 C 137.7939 272.3004 129.4287 275.3547 128.7519 281.9648 C 128.3762 285.3674 132.0813 289.0208 135.0877 292.2282 C 136.8169 294.1729 139.5829 297.0700 139.8840 297.0700 C 141.1621 297.0700 140.3500 299.9082 139.2221 302.1445 C 138.1696 304.1859 137.4182 304.5747 134.1862 304.5747 C 128.2481 304.5747 125.5419 302.4360 116.9730 291.1594 C 112.0864 284.6458 107.8020 279.8828 105.6224 278.5213 C 96.5269 272.7860 81.4931 277.6623 76.0807 291.5632 C 73.0743 299.4383 77.4343 307.0050 81.7942 310.4074 C 83.8992 312.0600 84.6051 313.5797 91.2191 313.5797 C 98.7364 313.5797 98.0341 313.4723 99.6879 315.8054 C 103.2955 320.7632 104.2071 325.7714 98.3435 334.7149 C 95.8638 338.5062 95.6483 341.2176 90.2359 345.3005 C 84.2978 349.7722 74.8791 362.7074 74.8791 366.2070 C 74.9546 373.4006 79.4646 378.4556 85.9286 378.4556 C 91.1900 378.4556 96.0011 375.4421 100.8122 369.2206 C 107.5773 360.4715 111.3350 348.5145 112.8387 331.0163 C 113.4399 324.4060 114.7180 321.7812 117.1986 322.2673 C 119.3781 322.6561 120.7308 326.4474 120.7308 332.0856 C 120.7308 338.5988 119.0770 343.0706 114.3423 349.2921 C 112.0864 352.2084 109.9069 355.8053 109.5312 357.3607 C 107.8775 363.0962 112.0864 367.7624 119.0024 367.7624 C 131.7802 367.6652 138.9219 350.2642 133.8852 331.5023 C 132.2314 325.3781 132.4570 322.5589 134.7120 320.2258 C 138.7709 316.1429 142.0783 318.7677 143.9577 327.4195 C 145.0101 332.2801 145.0101 341.8068 144.0332 346.4730 C 142.6796 352.6945 137.6438 361.6381 132.6071 366.4986 C 124.8651 374.0811 122.0843 378.1640 122.3845 381.6637 C 122.5346 383.4135 123.3615 385.2605 124.4894 386.4271 C 126.7444 388.5657 140.8758 392.9403 148.2421 393.7179 L 153.2451 393.4825 L 160.1381 391.0399 C 163.1115 387.6266 164.3275 382.1299 164.2593 376.2668 C 164.2271 373.5032 162.7556 371.7109 159.5991 367.9196 C 153.5855 360.6288 151.2453 354.2423 158.6116 339.8550 C 164.3997 328.4812 168.4510 325.6697 167.0229 322.1701 C 165.8194 319.4481 161.5466 319.5453 158.0890 322.6561 C 154.8571 325.4752 153.3534 325.1836 152.3010 321.4895 C 151.0984 317.5039 153.2788 308.2688 157.7879 298.2551 C 160.9453 291.0619 161.6967 288.6316 161.6967 284.9374 C 161.6967 281.0492 161.3210 279.8828 159.1415 276.9658 C 155.6084 272.3004 148.0920 269.1894 143.5820 270.5498 Z" fill="#000000" /><path d="M 65.8240 260.9228 C 62.8581 262.9892 58.6341 266.2035 56.3872 268.1551 C 54.1403 270.1066 49.0173 273.8950 44.9728 276.6501 C 41.0182 279.2905 36.6142 282.8492 35.4458 284.5712 C 31.3115 289.9667 10.1904 333.3604 8.4827 339.6743 C 6.6852 346.5622 6.9548 352.4169 9.4714 357.2384 C 15.6729 369.0626 17.6502 373.3101 19.4477 378.8205 C 22.5036 387.8895 24.5707 391.2186 28.1658 392.4814 C 34.4572 394.6626 45.0627 388.6931 54.4998 377.6725 C 58.7240 372.7362 59.0835 371.8178 59.0835 367.2259 C 58.9936 360.4528 57.2860 357.9272 49.1970 352.8761 C 40.9283 347.8250 38.4118 344.9550 38.4118 340.8223 C 38.4118 336.9192 41.3777 333.7048 46.8602 331.7533 C 50.1857 330.6053 51.5338 330.6053 54.7694 331.9829 C 59.0835 333.9344 59.1734 334.1640 57.9151 347.3658 C 57.2860 353.4501 57.4657 354.7129 59.3531 358.2716 C 61.1507 361.7156 61.8697 362.1747 65.8240 362.5191 C 71.7559 362.8635 75.6206 360.2232 80.4740 352.0725 C 82.6310 348.5138 86.7653 343.2331 89.7313 340.2483 C 95.2138 334.8528 97.1012 331.5237 98.0898 325.2098 C 99.1684 319.2403 97.5506 316.8295 92.4276 316.8295 C 83.9792 316.8295 76.4295 311.7784 73.3737 303.8574 C 70.6774 297.0842 71.3964 290.4259 75.8004 281.2420 C 78.7663 275.0429 79.3056 272.9766 79.3056 267.4663 C 79.3056 263.5631 78.7663 260.1192 78.0473 259.0860 C 76.1599 256.1013 71.7559 256.7901 65.8240 260.9228 Z M 61.2405 288.1299 C 61.1507 290.3111 60.5215 294.5586 59.9823 297.4286 C 58.9037 302.5946 58.9936 303.1686 61.6899 310.6304 L 64.5657 318.5515 L 62.1393 321.1919 C 60.4317 323.1434 59.0835 323.7174 57.3758 323.2582 C 53.3314 321.9954 43.3550 315.2224 43.0854 313.3856 C 42.8158 311.4340 52.3427 291.4591 55.9378 286.5227 C 59.0835 282.2752 61.3304 282.9640 61.2405 288.1299 Z" fill="#000000" /><path d="M 207.1808 278.5514 C 204.5644 280.3687 203.0051 285.3610 201.0233 287.0772 C 199.0424 288.7935 194.5243 292.1249 190.9571 294.5471 C 189.5969 295.4527 181.0896 290.7675 174.1300 291.4131 C 169.3587 291.8557 166.2290 299.9788 161.2128 302.2674 C 153.9076 305.6003 152.7364 318.7415 157.4727 318.7952 C 162.4823 318.8520 167.3940 311.3969 171.3184 321.5772 C 173.7673 327.9300 158.5204 344.7990 158.7757 349.9711 C 159.0903 356.3451 161.5220 360.1532 163.7401 364.3930 C 169.2110 374.7908 166.8610 379.5494 168.4456 384.3950 C 171.1410 392.3701 172.9637 395.2976 176.1336 396.4081 C 181.6835 398.3261 191.0361 393.0768 199.3588 383.3855 C 203.0851 379.0447 203.4014 378.2371 203.4014 374.1991 C 203.3214 368.2431 201.8160 366.0221 194.6816 361.5803 C 187.3907 357.1386 185.1699 354.6148 185.1699 350.9806 C 185.1699 347.5483 187.7871 344.7217 192.6216 343.0055 C 195.5543 341.9960 196.7433 341.9960 199.5969 343.2075 C 203.4014 344.9236 203.4805 345.1255 202.3714 356.7347 C 201.8160 362.0851 201.9751 363.1955 203.6396 366.3250 C 205.2250 369.3535 205.8587 369.7573 209.3468 370.0601 C 214.5767 370.3629 217.9858 368.0412 222.2666 360.8737 C 224.1693 357.7442 227.8147 353.1005 230.4301 350.4758 C 235.2664 345.7312 236.9309 342.8036 237.8018 337.2516 C 238.7536 332.0023 237.3264 329.8823 232.8083 329.8823 C 225.3575 329.8823 218.6994 325.4405 216.0049 318.4739 C 213.6267 312.5174 214.2604 306.6627 218.1448 298.5857 C 220.7594 293.1340 221.2366 291.3167 221.2366 286.4711 C 221.2366 283.0398 220.4983 275.3108 219.8655 274.4027 C 218.2010 271.7784 212.4107 274.9169 207.1808 278.5514 Z M 205.3041 304.6429 C 205.2250 306.5617 204.6696 310.2972 204.1941 312.8204 C 203.2423 317.3635 203.3214 317.8682 205.6996 324.4310 L 208.2359 331.3966 L 206.0959 333.7184 C 204.5905 335.4346 203.4014 335.9394 201.8960 335.5355 C 198.3288 334.4251 189.5307 328.4690 189.2925 326.8538 C 189.0553 325.1377 197.4570 307.5707 200.6269 303.2298 C 203.4014 299.4938 205.3823 300.0999 205.3041 304.6429 Z" fill="#000000" /></svg>