<?xml version="1.0" standalone="no"?>
<!DOCTYPE svg PUBLIC "-//W3C//DTD SVG 20010904//EN"
 "http://www.w3.org/TR/2001/REC-SVG-20010904/DTD/svg10.dtd">
<svg version="1.0" xmlns="http://www.w3.org/2000/svg"
 width="600.000000pt" height="330.000000pt" viewBox="0 0 600.000000 330.000000"
 preserveAspectRatio="xMidYMid meet">
<g transform="translate(0.000000,330.000000) scale(0.100000,-0.100000)"
fill="#000000" stroke="none">
<path d="M4685 3065 c-107 -22 -223 -55 -292 -82 -58 -23 -64 -24 -85 -9 -41
29 -116 21 -202 -22 -71 -36 -78 -37 -107 -25 -60 25 -107 17 -217 -39 -120
-61 -166 -66 -269 -30 -106 37 -206 25 -294 -35 -33 -22 -59 -32 -102 -35 -48
-4 -91 -21 -244 -97 -158 -78 -187 -89 -197 -77 -48 64 -273 35 -486 -62 -73
-34 -108 -73 -89 -103 18 -29 7 -27 -72 17 -95 53 -170 82 -219 86 -25 2 -40
10 -52 30 -27 42 -72 45 -192 13 -222 -59 -569 -265 -623 -369 -37 -70 -123
-331 -123 -370 1 -57 27 -109 121 -242 107 -151 142 -168 237 -120 51 26 160
103 205 145 25 23 34 25 94 22 56 -2 73 -8 105 -33 49 -40 111 -47 214 -22 90
21 137 50 193 121 l41 52 36 -15 c27 -11 53 -14 100 -8 63 6 65 6 129 -36 162
-106 295 -118 340 -31 17 35 33 38 76 16 43 -23 169 -23 256 -1 82 20 120 18
211 -15 l64 -22 59 21 c57 20 62 21 106 6 55 -19 105 -14 218 23 99 33 175 34
269 5 84 -27 136 -28 216 -3 58 18 70 19 166 6 141 -18 217 -8 296 42 49 30
64 29 118 -7 37 -25 55 -30 105 -30 101 0 349 47 410 77 130 65 142 232 23
339 -53 48 -95 64 -166 64 -48 0 -67 5 -103 29 -52 35 -81 71 -98 124 -25 76
18 188 139 366 77 112 84 126 88 179 3 47 0 63 -20 91 -41 61 -78 76 -203 78
-65 1 -139 -4 -180 -12z m280 -44 c70 -32 94 -77 74 -139 -6 -20 -42 -82 -79
-137 -122 -181 -160 -284 -141 -376 14 -66 33 -101 72 -133 57 -48 109 -69
169 -68 75 2 134 -27 170 -85 48 -76 47 -137 -3 -191 -49 -53 -165 -89 -359
-113 -102 -12 -106 -12 -139 9 -94 60 -89 59 -176 16 -75 -38 -82 -39 -178
-39 -72 0 -112 5 -143 18 -42 17 -43 17 -105 -10 -80 -35 -157 -36 -251 -4
-83 29 -145 25 -259 -13 -88 -30 -142 -33 -194 -11 -48 20 -92 19 -128 -5 -40
-27 -82 -25 -147 5 -64 30 -90 31 -187 5 -117 -31 -217 -23 -256 20 -27 30
-42 25 -100 -36 l-53 -57 -49 8 c-71 10 -130 36 -207 88 -57 39 -71 45 -88 36
-36 -19 -103 -14 -133 9 -15 12 -32 22 -37 22 -5 0 -44 -35 -86 -78 -90 -90
-134 -114 -219 -120 -81 -6 -103 1 -143 41 -31 32 -34 33 -71 23 -29 -7 -48
-7 -74 3 -35 12 -37 11 -73 -24 -53 -52 -206 -154 -240 -161 -41 -8 -66 8
-110 74 -88 130 -142 230 -142 261 0 38 59 214 105 316 49 108 127 171 340
277 130 64 198 92 282 113 71 18 82 15 105 -25 16 -28 20 -29 60 -24 39 5 57
-1 192 -70 110 -56 160 -76 188 -76 49 0 59 21 29 61 -40 53 -5 81 174 139 76
25 119 33 182 34 77 1 83 -1 111 -27 l29 -28 176 90 c184 94 271 127 315 118
21 -4 43 6 95 41 63 43 71 46 130 45 43 0 81 -9 124 -27 35 -14 81 -26 104
-26 46 0 170 47 227 85 47 32 120 34 167 5 l33 -20 30 25 c41 34 110 65 149
65 19 0 43 -10 62 -25 l30 -26 38 19 c99 51 236 93 373 115 74 12 197 6 235
-12z"/>
<path d="M4755 2984 c-160 -22 -260 -51 -312 -90 -26 -20 -33 -32 -33 -59 0
-45 33 -69 122 -90 125 -28 154 -57 165 -161 12 -111 -42 -83 -253 131 -166
168 -209 201 -250 191 -44 -11 -64 -44 -64 -105 0 -57 10 -79 105 -236 35 -57
33 -100 -5 -120 -38 -20 -56 -19 -108 5 -54 24 -82 14 -82 -30 0 -21 8 -35 25
-46 41 -27 48 -48 28 -88 -15 -33 -15 -37 0 -54 10 -11 36 -25 60 -31 51 -16
73 -34 98 -83 26 -50 24 -87 -6 -128 -44 -60 -27 -106 50 -136 37 -13 62 -16
131 -10 95 7 129 21 168 66 57 68 47 113 -44 202 -77 75 -110 130 -110 183 0
79 73 30 242 -159 48 -55 88 -102 88 -106 0 -3 -16 -14 -35 -23 -68 -32 -56
-114 21 -143 53 -20 138 -15 259 16 157 41 196 74 181 154 -14 72 -70 100
-143 73 -61 -23 -82 -12 -185 93 -105 108 -126 157 -107 250 16 78 65 180 141
290 111 163 120 198 55 225 -35 14 -154 25 -202 19z m58 -91 c33 -16 49 -50
36 -75 -23 -43 -110 -29 -154 24 -29 35 -28 48 5 65 26 13 70 8 113 -14z
m-400 -445 c36 -26 34 -44 -7 -69 -50 -29 -52 -55 -16 -175 17 -56 30 -115 28
-131 -5 -48 -31 -33 -58 35 -33 82 -70 127 -117 142 -51 17 -57 24 -41 49 11
19 11 24 -5 36 -30 22 -18 50 23 53 70 5 81 11 101 57 22 49 25 50 92 3z"/>
<path d="M3881 2825 c-60 -41 -103 -59 -191 -80 -101 -23 -153 -20 -229 16
-81 38 -129 36 -174 -10 -26 -25 -31 -40 -35 -89 -4 -63 9 -122 35 -147 23
-23 31 -19 63 34 33 54 52 66 80 51 43 -23 66 -162 34 -208 -21 -30 -50 -28
-122 9 -64 33 -92 33 -92 -1 0 -66 67 -123 169 -145 41 -8 89 -23 108 -32 67
-31 90 -104 57 -181 -18 -45 -50 -79 -126 -138 -96 -75 -87 -114 28 -114 42 0
92 10 154 30 109 36 154 37 263 9 179 -46 282 12 280 156 -1 88 -35 172 -79
192 -51 25 -98 6 -184 -72 -38 -36 -74 -65 -79 -65 -20 0 -41 46 -41 90 0 86
37 118 99 86 40 -21 57 -20 81 4 16 16 20 33 20 93 0 136 -60 179 -136 97 -65
-70 -114 -44 -114 61 0 32 3 64 6 73 10 25 63 19 122 -14 155 -85 207 -58 206
110 0 66 -6 97 -24 138 -40 92 -93 106 -179 47z"/>
<path d="M3088 2696 c-37 -13 -81 -35 -98 -49 -16 -14 -46 -31 -67 -37 -78
-25 -227 -106 -274 -148 -26 -23 -59 -66 -73 -94 -27 -53 -35 -128 -15 -128 7
0 32 18 56 41 25 22 46 39 48 37 6 -6 -24 -163 -39 -208 l-17 -44 34 -31 c23
-21 41 -53 56 -96 44 -133 72 -155 186 -144 96 9 139 21 174 51 29 25 30 25
41 5 13 -25 60 -51 92 -51 64 0 307 156 348 223 30 48 27 109 -7 147 -23 25
-40 33 -93 41 -177 28 -218 45 -250 110 -28 53 -25 116 7 196 35 84 38 167 9
189 -26 19 -39 18 -118 -10z m-198 -164 c0 -5 -22 -37 -50 -73 -84 -108 -91
-226 -18 -305 41 -45 47 -76 25 -122 -8 -15 -19 -53 -26 -84 -14 -64 -25 -73
-35 -28 -3 18 -28 54 -57 85 l-51 54 18 93 c9 51 23 105 30 119 19 38 27 101
15 119 -9 13 -16 12 -51 -8 -22 -12 -40 -19 -40 -14 0 17 60 65 146 117 101
61 94 58 94 47z m136 -59 c-24 -82 -17 -115 38 -187 19 -25 38 -55 41 -67 8
-24 -19 -59 -45 -59 -25 0 -200 118 -200 134 0 8 13 44 29 80 24 53 36 68 64
80 19 7 38 19 41 25 12 18 38 13 32 -6z m118 -399 c25 -24 19 -59 -18 -102
-30 -37 -35 -39 -49 -25 -9 9 -37 28 -64 42 -59 32 -65 54 -21 81 41 25 129
28 152 4z"/>
<path d="M2415 2545 c-76 -20 -98 -31 -133 -60 -38 -32 -41 -57 -7 -79 37 -24
34 -71 -4 -90 -46 -24 -104 -29 -178 -16 -85 14 -136 37 -193 85 -85 72 -139
77 -221 22 -44 -29 -99 -111 -99 -147 0 -40 19 -50 91 -48 51 1 74 -4 115 -25
64 -32 76 -48 72 -89 -4 -33 -4 -33 -15 -8 -33 76 -160 119 -252 86 -43 -16
-46 -16 -65 4 l-21 20 28 55 c16 30 47 78 69 107 50 66 71 114 64 144 -10 40
-64 32 -201 -31 -152 -70 -263 -137 -331 -198 -42 -38 -58 -62 -80 -120 -15
-40 -47 -118 -71 -174 -28 -63 -42 -109 -38 -122 8 -27 110 -168 153 -213 23
-25 45 -38 62 -38 40 0 154 84 200 147 23 32 24 32 38 12 12 -18 22 -20 59
-16 24 2 60 16 81 29 20 14 47 27 59 30 20 5 21 3 17 -21 -9 -43 22 -73 84
-79 42 -4 62 1 116 26 107 50 180 145 226 296 12 36 32 78 45 93 24 27 26 27
39 10 17 -21 10 -47 -28 -121 -26 -50 -33 -109 -16 -136 14 -23 101 -17 157
12 60 29 86 72 84 136 -1 26 -3 69 -4 97 -2 45 0 50 25 59 20 7 33 5 52 -8 22
-14 26 -24 26 -62 0 -59 -18 -99 -79 -179 -28 -36 -51 -72 -51 -79 0 -26 42
-49 131 -72 109 -29 131 -29 157 -6 20 17 72 165 72 203 0 12 -12 27 -30 37
-34 19 -37 37 -15 107 23 76 -12 119 -41 50 -30 -72 -59 -25 -51 82 5 66 10
79 52 143 53 78 59 114 25 142 -27 22 -101 23 -175 3z m-1269 -411 c-30 -55
-34 -118 -11 -151 14 -20 13 -25 -9 -57 -13 -19 -27 -56 -31 -82 -5 -34 -9
-43 -16 -33 -5 8 -9 24 -9 36 0 12 -12 35 -26 52 -30 36 -32 30 34 146 28 50
58 103 67 119 9 16 18 26 21 23 3 -3 -6 -27 -20 -53z m1332 -232 c15 -11 37
-23 50 -26 24 -8 28 -26 12 -57 -23 -43 -161 -3 -168 49 -2 14 12 50 35 87
l38 64 3 -49 c2 -40 8 -53 30 -68z m-1070 54 c2 -11 -2 -37 -9 -58 -14 -43 -7
-42 -101 -17 -39 10 -62 37 -52 62 9 24 46 36 104 34 45 -2 55 -5 58 -21z"/>
<path d="M3856 1605 c-16 -9 -52 -32 -80 -52 -128 -92 -231 -98 -331 -18 -57
45 -62 47 -85 35 -40 -21 -139 -266 -125 -309 14 -46 76 -7 115 73 23 48 54
62 64 29 32 -117 -18 -303 -83 -303 -9 0 -47 26 -85 57 -77 64 -82 64 -130 -7
-78 -114 -39 -196 134 -286 108 -55 145 -96 145 -158 0 -63 -37 -125 -142
-238 -129 -139 -149 -194 -88 -234 36 -24 79 -14 209 48 103 49 116 53 186 53
67 0 84 -4 166 -42 121 -57 143 -61 193 -32 65 36 108 116 126 236 14 88 -40
199 -117 239 -49 26 -68 18 -141 -57 -77 -79 -104 -86 -141 -36 -17 23 -21 42
-20 105 0 85 18 152 40 152 8 0 37 -18 65 -40 28 -22 57 -40 66 -40 52 0 74
52 75 178 2 147 -29 177 -126 126 -31 -16 -60 -25 -69 -21 -25 10 -37 50 -37
127 0 78 12 120 35 120 9 0 53 -19 97 -42 72 -38 90 -43 147 -43 36 0 73 3 81
8 26 13 130 -156 130 -213 0 -46 -34 -40 -84 15 -42 45 -77 57 -93 33 -4 -7
-8 -47 -9 -88 0 -41 -4 -104 -8 -140 -7 -56 -6 -68 8 -79 15 -13 20 -11 42 12
14 15 29 27 33 27 14 0 91 -88 102 -116 36 -96 29 -207 -16 -274 -56 -83 -55
-130 5 -184 60 -54 135 -68 251 -46 115 22 189 77 189 142 0 18 5 13 21 -20
25 -51 100 -105 174 -128 53 -15 178 -20 240 -8 108 20 175 76 175 146 0 60
-30 100 -118 154 -115 71 -269 229 -317 326 -35 71 -37 81 -34 150 5 87 32
149 109 248 163 208 170 220 170 265 0 87 -87 133 -272 142 -170 9 -301 -28
-341 -97 -37 -62 -15 -96 102 -155 89 -44 145 -95 157 -140 7 -30 -1 -45 -27
-45 -47 0 -98 44 -196 170 -94 120 -193 200 -249 200 -9 0 -31 -7 -50 -16 -19
-9 -36 -15 -38 -13 -1 2 -13 21 -26 43 -42 69 -111 94 -174 61z m573 -871 c54
-49 201 -236 201 -257 0 -7 -15 -24 -34 -39 -20 -16 -37 -41 -41 -58 l-7 -31
-20 41 c-12 23 -43 60 -71 81 -27 22 -59 51 -70 65 -27 35 -57 136 -57 195 0
45 2 49 24 49 14 0 44 -18 75 -46z"/>
<path d="M3030 1444 c-66 -18 -121 -45 -232 -117 -92 -61 -165 -89 -218 -86
-73 4 -88 -2 -172 -65 -90 -68 -139 -122 -163 -180 -27 -63 9 -99 66 -65 86
49 97 53 123 41 59 -27 41 -86 -80 -268 -86 -129 -88 -141 -36 -217 46 -66 64
-106 83 -185 11 -41 28 -87 40 -103 33 -47 102 -82 164 -83 48 0 61 4 112 40
32 22 82 53 111 69 73 39 68 57 -28 107 -79 41 -136 94 -165 154 -23 49 -9 64
60 64 59 0 146 -15 188 -31 34 -14 34 -35 2 -99 -31 -61 -31 -84 -3 -104 28
-20 108 -21 153 -1 70 29 226 199 266 290 27 61 20 104 -23 140 -29 25 -38 27
-107 25 -121 -4 -130 -2 -163 31 -30 29 -30 32 -26 102 6 86 32 145 101 231
63 79 112 160 127 213 17 57 -1 86 -64 102 -53 13 -47 13 -116 -5z m-178 -330
c10 -21 8 -41 -10 -112 -28 -106 -28 -156 -2 -224 11 -29 20 -68 20 -85 0 -28
-4 -33 -22 -33 -46 0 -236 150 -237 187 -2 67 83 205 162 263 50 37 74 38 89
4z"/>
<path d="M5164 1429 c-54 -15 -127 -72 -136 -106 -4 -16 -25 -50 -46 -74 -51
-60 -136 -177 -156 -216 -9 -18 -21 -54 -27 -81 -9 -44 -7 -55 15 -103 63
-133 199 -284 378 -420 94 -71 132 -93 188 -110 81 -24 105 -20 170 32 39 31
118 131 159 200 12 20 35 78 52 130 27 79 32 110 33 199 l1 105 -44 85 c-42
82 -136 210 -190 258 -14 13 -62 41 -106 62 -70 33 -92 39 -170 43 -49 2 -104
0 -121 -4z m145 -58 c-18 -25 -20 -33 -10 -63 12 -35 69 -97 109 -117 71 -37
192 -53 233 -31 16 9 21 7 31 -14 8 -20 8 -29 -3 -42 -10 -13 -28 -15 -94 -12
-67 2 -92 9 -156 39 -114 55 -189 130 -189 189 0 28 52 80 80 80 l21 0 -22
-29z m91 -271 c48 -25 83 -64 116 -129 53 -107 40 -176 -49 -258 -115 -106
-170 -87 -112 39 32 70 42 141 25 174 -8 13 -49 47 -92 74 -94 60 -100 81 -35
111 47 22 89 19 147 -11z m238 -246 c-3 -78 -8 -101 -37 -158 -18 -36 -58 -94
-88 -127 -91 -97 -137 -111 -198 -57 -53 46 -75 96 -75 168 0 65 31 145 53
137 12 -4 12 -14 1 -118 -10 -94 31 -134 104 -103 45 18 134 104 166 159 35
59 57 143 50 185 -7 33 -6 34 11 20 15 -12 17 -27 13 -106z"/>
<path d="M2054 1390 c-77 -18 -142 -81 -151 -149 -5 -35 -2 -41 38 -74 23 -20
46 -37 50 -37 17 0 20 -42 5 -65 -14 -21 -24 -25 -67 -25 -79 0 -115 22 -229
138 -65 67 -122 116 -151 130 -121 59 -272 -8 -344 -151 -40 -81 -31 -142 27
-177 28 -17 51 -20 139 -20 100 0 107 -1 129 -25 48 -51 22 -172 -56 -264 -33
-39 -123 -109 -195 -151 -79 -46 -109 -78 -109 -114 1 -74 61 -126 147 -126
70 0 134 31 198 95 90 90 140 213 160 393 8 68 25 95 58 90 29 -4 47 -43 47
-101 0 -67 -22 -113 -85 -177 -30 -30 -59 -67 -64 -83 -22 -59 34 -107 126
-107 170 1 265 180 198 373 -22 63 -19 92 11 116 54 42 98 15 123 -74 14 -50
14 -148 1 -196 -18 -64 -85 -156 -152 -206 -103 -78 -140 -120 -136 -156 2
-18 13 -37 28 -49 30 -22 218 -67 316 -75 l72 -6 45 42 c54 50 82 114 74 167
-5 28 -20 49 -62 88 -80 75 -78 98 20 246 77 117 95 163 76 199 -16 28 -48 27
-94 -5 -43 -29 -63 -26 -77 12 -16 41 13 136 73 239 42 74 52 99 52 137 0 40
-5 52 -34 82 -47 48 -147 80 -207 66z"/>
<path d="M1035 1347 c-33 -18 -80 -46 -105 -63 -25 -17 -82 -50 -127 -74 -44
-23 -93 -54 -106 -69 -46 -47 -281 -425 -300 -480 -20 -60 -17 -111 11 -153
69 -103 91 -140 111 -188 34 -79 57 -108 97 -119 70 -19 188 33 293 129 47 43
51 51 51 91 -1 59 -20 81 -110 125 -92 44 -120 69 -120 105 0 34 33 62 94 79
37 10 52 10 88 -2 48 -17 49 -19 35 -134 -7 -53 -5 -64 16 -95 20 -30 28 -34
72 -37 66 -3 109 20 163 91 24 31 70 77 103 103 61 47 82 76 93 131 12 52 -6
73 -63 73 -94 0 -178 44 -212 113 -30 59 -22 117 27 197 33 54 39 72 39 120 0
34 -6 64 -14 73 -21 26 -70 20 -136 -16z m-51 -237 c-1 -19 -8 -56 -14 -81
-12 -45 -11 -50 19 -115 l32 -69 -27 -23 c-19 -17 -34 -22 -53 -18 -45 11
-156 70 -159 86 -3 17 103 191 143 234 35 37 60 31 59 -14z"/>
</g>
</svg>
